<svg width="19" height="12" viewBox="0 0 19 12" fill="none" xmlns="http://www.w3.org/2000/svg">
<path d="M0.784744 10.7284C0.535502 10.8473 0.429825 11.1457 0.548707 11.395C0.66759 11.6442 0.966013 11.7499 1.21526 11.631L0.784744 10.7284ZM18.6204 3.16691C18.7126 2.90661 18.5763 2.62087 18.316 2.52869L14.0741 1.02656C13.8138 0.934378 13.5281 1.07067 13.4359 1.33097C13.3437 1.59128 13.48 1.87702 13.7403 1.9692L17.5109 3.30442L16.1757 7.07499C16.0835 7.33529 16.2198 7.62104 16.4801 7.71321C16.7404 7.80539 17.0261 7.6691 17.1183 7.4088L18.6204 3.16691ZM1.21526 11.631L18.3644 3.4513L17.9339 2.54871L0.784744 10.7284L1.21526 11.631Z" fill="black"/>
</svg>
