<svg width="128" height="85" viewBox="0 0 128 85" fill="none" xmlns="http://www.w3.org/2000/svg">
<path d="M27.813 80.2327C26.9986 80.2172 26.32 80.0543 25.7771 79.7441C25.2341 79.4338 24.8114 79.015 24.509 78.4876C24.2065 77.9602 24.0048 77.363 23.904 76.6959C23.8109 76.0289 23.8032 75.3348 23.8807 74.6134L24.0552 73.1941C24.1483 72.4495 24.3228 71.7166 24.5788 70.9953C24.8347 70.2739 25.1798 69.6224 25.6142 69.0407C26.0485 68.4513 26.5837 67.9859 27.2197 67.6447C27.8557 67.3034 28.6003 67.1483 29.4534 67.1793C30.2988 67.2026 30.9697 67.3926 31.4661 67.7494C31.9625 68.1061 32.327 68.5715 32.5597 69.1454C32.7924 69.7194 32.9242 70.3515 32.9553 71.0418C32.994 71.7321 32.9708 72.4224 32.8855 73.1127L32.7109 74.311H25.0674L25.3815 72.5542L30.9426 72.5659L30.9891 72.2517C31.0512 71.7786 31.0628 71.2939 31.024 70.7975C30.9852 70.2933 30.8379 69.8668 30.5819 69.5177C30.326 69.161 29.9071 68.9671 29.3254 68.936C28.7282 68.905 28.2318 69.0175 27.8363 69.2734C27.4485 69.5294 27.1344 69.8745 26.8939 70.3088C26.6535 70.7432 26.4673 71.2163 26.3355 71.7282C26.2114 72.2323 26.1222 72.721 26.0679 73.1941L25.8934 74.6251C25.8469 75.0517 25.8314 75.4899 25.8469 75.9397C25.8624 76.3818 25.9361 76.7929 26.0679 77.1729C26.2075 77.553 26.4286 77.8632 26.7311 78.1037C27.0413 78.3363 27.4679 78.4604 28.0108 78.4759C28.6158 78.4915 29.1587 78.3674 29.6396 78.1037C30.1282 77.8399 30.5742 77.4909 30.9775 77.0566L31.9547 78.3712C31.6212 78.7978 31.2334 79.1507 30.7913 79.4299C30.357 79.7091 29.8878 79.9147 29.3836 80.0465C28.8795 80.1784 28.3559 80.2404 27.813 80.2327ZM40.7124 76.9752L42.376 67.412H44.3887L42.2015 80H40.2935L40.7124 76.9752ZM41.4686 74.3924L42.1666 74.3691C42.0813 75.0517 41.9495 75.7458 41.7711 76.4516C41.5927 77.1497 41.3329 77.7895 40.9916 78.3712C40.6581 78.9529 40.2121 79.4183 39.6537 79.7673C39.0952 80.1086 38.3972 80.2676 37.5595 80.2443C36.908 80.2288 36.3884 80.0776 36.0006 79.7906C35.6128 79.4959 35.3219 79.1197 35.128 78.6621C34.9341 78.1967 34.8178 77.6926 34.779 77.1497C34.7402 76.599 34.7519 76.0599 34.8139 75.5325L36.1751 67.412H38.1761L36.815 75.5674C36.7917 75.8156 36.7762 76.0987 36.7684 76.4167C36.7607 76.7347 36.7878 77.045 36.8499 77.3474C36.9197 77.6422 37.0438 77.8904 37.2222 78.092C37.4083 78.2859 37.6759 78.3906 38.0249 78.4061C38.8005 78.4449 39.4249 78.2627 39.898 77.8593C40.3711 77.456 40.7279 76.9402 40.9683 76.312C41.2165 75.676 41.3833 75.0361 41.4686 74.3924ZM48.8185 69.9598L46.2357 84.8398H44.2231L47.2479 67.412H49.0744L48.8185 69.9598ZM55.0543 73.1359L54.9031 74.2993C54.8178 74.9819 54.6704 75.6799 54.461 76.3934C54.2594 77.0992 53.9724 77.7469 53.6001 78.3363C53.2356 78.9258 52.7663 79.3989 52.1924 79.7557C51.6184 80.1047 50.9165 80.2637 50.0866 80.2327C49.3731 80.2094 48.7914 80.0233 48.3415 79.6742C47.8994 79.3252 47.562 78.8754 47.3293 78.3247C47.1044 77.774 46.9571 77.1846 46.8873 76.5563C46.8174 75.9203 46.8058 75.3115 46.8523 74.7298L47.0967 72.9381C47.2052 72.3021 47.372 71.6468 47.5969 70.972C47.8219 70.2895 48.1205 69.6573 48.4927 69.0756C48.865 68.4939 49.3265 68.0247 49.8772 67.6679C50.4356 67.3111 51.0988 67.1444 51.8666 67.1677C52.681 67.1909 53.3209 67.3926 53.7862 67.7726C54.2516 68.1449 54.5851 68.6297 54.7868 69.2269C54.9962 69.8163 55.1125 70.4562 55.1358 71.1465C55.1591 71.829 55.1319 72.4922 55.0543 73.1359ZM52.9137 74.311L53.0533 73.1243C53.0998 72.7132 53.127 72.275 53.1347 71.8096C53.1502 71.3365 53.1037 70.8867 52.9951 70.4601C52.8943 70.0335 52.6965 69.6845 52.4018 69.413C52.1148 69.1338 51.696 68.9864 51.1453 68.9709C50.7265 68.9632 50.3387 69.0485 49.9819 69.2269C49.6329 69.4053 49.3188 69.6457 49.0395 69.9482C48.7603 70.2507 48.5238 70.5881 48.3299 70.9604C48.1437 71.3249 48.0041 71.6933 47.911 72.0656L47.341 75.614C47.3332 76.0638 47.4147 76.5059 47.5853 76.9402C47.7559 77.3668 48.0041 77.7236 48.3299 78.0106C48.6634 78.2976 49.0744 78.4527 49.5631 78.4759C50.1525 78.507 50.645 78.3984 51.0406 78.1502C51.4439 77.902 51.7697 77.5724 52.0179 77.1613C52.2738 76.7425 52.4716 76.2849 52.6112 75.7885C52.7508 75.2843 52.8516 74.7918 52.9137 74.311ZM56.9479 74.311L57.0991 73.1243C57.2 72.372 57.3861 71.639 57.6576 70.9255C57.9368 70.2119 58.3052 69.5681 58.7628 68.9942C59.2204 68.4203 59.7711 67.9665 60.4148 67.633C61.0663 67.2995 61.8187 67.1483 62.6718 67.1793C63.4785 67.2026 64.1494 67.3926 64.6845 67.7494C65.2197 68.0984 65.6346 68.5599 65.9294 69.1338C66.2319 69.7078 66.4296 70.3399 66.5227 71.0302C66.6158 71.7204 66.6274 72.4146 66.5576 73.1127L66.4064 74.311C66.3055 75.0555 66.1155 75.7885 65.8363 76.5098C65.5648 77.2233 65.1964 77.8671 64.7311 78.441C64.2735 79.0072 63.7189 79.4571 63.0674 79.7906C62.4237 80.1163 61.6791 80.2637 60.8337 80.2327C60.0193 80.2172 59.3445 80.031 58.8093 79.6742C58.2819 79.3175 57.867 78.8521 57.5645 78.2782C57.2698 77.7042 57.0759 77.0721 56.9828 76.3818C56.8897 75.6915 56.8781 75.0012 56.9479 74.311ZM59.1118 73.1127L58.9606 74.3342C58.9218 74.722 58.9063 75.1525 58.9141 75.6256C58.9218 76.091 58.9877 76.5369 59.1118 76.9635C59.2359 77.3901 59.4415 77.7469 59.7284 78.0338C60.0232 78.3131 60.4304 78.4643 60.95 78.4876C61.5395 78.5186 62.0359 78.41 62.4392 78.1618C62.8502 77.9136 63.1876 77.584 63.4513 77.1729C63.7228 76.7541 63.9322 76.2965 64.0796 75.8001C64.2269 75.296 64.3316 74.7996 64.3937 74.311L64.5449 73.101C64.5837 72.7132 64.5992 72.2866 64.5915 71.8213C64.5837 71.3559 64.5178 70.9099 64.3937 70.4834C64.2696 70.049 64.0602 69.6884 63.7654 69.4014C63.4785 69.1144 63.0713 68.9593 62.5439 68.936C61.9932 68.9128 61.5123 69.0291 61.1013 69.2851C60.6979 69.5332 60.3606 69.8706 60.0891 70.2972C59.8176 70.7238 59.6005 71.1853 59.4376 71.6817C59.2825 72.178 59.1739 72.655 59.1118 73.1127ZM74.3496 76.6843C74.4039 76.2965 74.3341 75.9707 74.1402 75.707C73.9541 75.4356 73.7059 75.2068 73.3956 75.0206C73.0931 74.8345 72.7945 74.6677 72.4998 74.5204C72.0965 74.3187 71.7048 74.1093 71.3248 73.8921C70.9525 73.675 70.619 73.4268 70.3242 73.1476C70.0295 72.8683 69.8007 72.5426 69.6378 72.1703C69.475 71.798 69.409 71.3559 69.4401 70.844C69.4711 70.2856 69.6068 69.7776 69.8473 69.32C70.0877 68.8623 70.4057 68.4745 70.8012 68.1566C71.1968 67.8308 71.6428 67.5826 72.1392 67.412C72.6355 67.2413 73.1552 67.1638 73.6981 67.1793C74.4505 67.1948 75.0942 67.3693 75.6294 67.7028C76.1723 68.0286 76.5795 68.4784 76.8509 69.0524C77.1302 69.6186 77.2543 70.2701 77.2232 71.0069L75.2338 70.9953C75.2493 70.6385 75.1989 70.3088 75.0826 70.0064C74.974 69.6961 74.7956 69.4479 74.5474 69.2618C74.2992 69.0679 73.9773 68.9671 73.5818 68.9593C73.2095 68.9593 72.8682 69.033 72.558 69.1803C72.2477 69.3277 71.9918 69.5371 71.7901 69.8086C71.5962 70.08 71.4721 70.4019 71.4178 70.7742C71.3791 71.0457 71.4023 71.2822 71.4877 71.4839C71.5807 71.6778 71.7126 71.8484 71.8832 71.9958C72.0538 72.1431 72.2439 72.275 72.4533 72.3913C72.6704 72.4999 72.8837 72.6046 73.0931 72.7055C73.6516 72.9769 74.1867 73.2716 74.6986 73.5896C75.2105 73.9076 75.6216 74.2993 75.9319 74.7647C76.2499 75.2223 76.3895 75.8079 76.3507 76.5214C76.3119 77.1186 76.1684 77.6499 75.9202 78.1153C75.672 78.5806 75.3424 78.9723 74.9313 79.2903C74.528 79.6083 74.0665 79.8488 73.5469 80.0116C73.035 80.1745 72.4921 80.2482 71.9181 80.2327C71.1425 80.2172 70.46 80.0388 69.8705 79.6975C69.2888 79.3563 68.839 78.887 68.521 78.2898C68.2107 77.6926 68.0711 77.0023 68.1021 76.2189L70.1265 76.2306C70.111 76.6572 70.1652 77.0372 70.2893 77.3707C70.4134 77.7042 70.6151 77.9679 70.8943 78.1618C71.1813 78.348 71.5536 78.4449 72.0112 78.4527C72.3912 78.4527 72.748 78.3906 73.0815 78.2665C73.415 78.1347 73.6942 77.9408 73.9192 77.6848C74.1518 77.4211 74.2953 77.0876 74.3496 76.6843ZM84.7709 76.6843C84.8252 76.2965 84.7554 75.9707 84.5615 75.707C84.3754 75.4356 84.1272 75.2068 83.8169 75.0206C83.5145 74.8345 83.2158 74.6677 82.9211 74.5204C82.5178 74.3187 82.1261 74.1093 81.7461 73.8921C81.3738 73.675 81.0403 73.4268 80.7456 73.1476C80.4508 72.8683 80.222 72.5426 80.0591 72.1703C79.8963 71.798 79.8303 71.3559 79.8614 70.844C79.8924 70.2856 80.0281 69.7776 80.2686 69.32C80.509 68.8623 80.827 68.4745 81.2226 68.1566C81.6181 67.8308 82.0641 67.5826 82.5605 67.412C83.0568 67.2413 83.5765 67.1638 84.1194 67.1793C84.8718 67.1948 85.5155 67.3693 86.0507 67.7028C86.5936 68.0286 87.0008 68.4784 87.2722 69.0524C87.5515 69.6186 87.6756 70.2701 87.6445 71.0069L85.6551 70.9953C85.6706 70.6385 85.6202 70.3088 85.5039 70.0064C85.3953 69.6961 85.2169 69.4479 84.9687 69.2618C84.7205 69.0679 84.3986 68.9671 84.0031 68.9593C83.6308 68.9593 83.2895 69.033 82.9793 69.1803C82.669 69.3277 82.4131 69.5371 82.2114 69.8086C82.0175 70.08 81.8934 70.4019 81.8392 70.7742C81.8004 71.0457 81.8236 71.2822 81.909 71.4839C82.002 71.6778 82.1339 71.8484 82.3045 71.9958C82.4751 72.1431 82.6652 72.275 82.8746 72.3913C83.0918 72.4999 83.305 72.6046 83.5145 72.7055C84.0729 72.9769 84.6081 73.2716 85.12 73.5896C85.6318 73.9076 86.0429 74.2993 86.3532 74.7647C86.6712 75.2223 86.8108 75.8079 86.772 76.5214C86.7332 77.1186 86.5897 77.6499 86.3415 78.1153C86.0933 78.5806 85.7637 78.9723 85.3526 79.2903C84.9493 79.6083 84.4878 79.8488 83.9682 80.0116C83.4563 80.1745 82.9134 80.2482 82.3394 80.2327C81.5638 80.2172 80.8813 80.0388 80.2918 79.6975C79.7101 79.3563 79.2603 78.887 78.9423 78.2898C78.632 77.6926 78.4924 77.0023 78.5235 76.2189L80.5478 76.2306C80.5323 76.6572 80.5866 77.0372 80.7107 77.3707C80.8347 77.7042 81.0364 77.9679 81.3156 78.1618C81.6026 78.348 81.9749 78.4449 82.4325 78.4527C82.8125 78.4527 83.1693 78.3906 83.5028 78.2665C83.8363 78.1347 84.1155 77.9408 84.3405 77.6848C84.5732 77.4211 84.7166 77.0876 84.7709 76.6843ZM95.0643 77.8477L96.1695 70.9953C96.2083 70.5919 96.185 70.239 96.0997 69.9366C96.0221 69.6263 95.8592 69.382 95.6111 69.2036C95.3706 69.0252 95.0293 68.936 94.5873 68.936C94.1839 68.9283 93.8233 69.0097 93.5053 69.1803C93.1873 69.3432 92.9236 69.572 92.7142 69.8668C92.5125 70.1615 92.3729 70.5027 92.2954 70.8905L90.3059 70.9022C90.3602 70.336 90.5192 69.8241 90.7829 69.3665C91.0544 68.9011 91.3995 68.5056 91.8184 68.1798C92.2372 67.8463 92.7025 67.5942 93.2144 67.4236C93.7263 67.2452 94.2576 67.1599 94.8083 67.1677C95.5994 67.1754 96.2587 67.3422 96.7861 67.6679C97.3135 67.9859 97.6935 68.4358 97.9262 69.0175C98.1667 69.5914 98.2481 70.2662 98.1705 71.0418L97.1467 77.2544C97.0769 77.6965 97.0498 78.123 97.0653 78.5341C97.0808 78.9452 97.1002 79.3679 97.1235 79.8022L97.1002 80L95.0875 80.0116C95.01 79.6549 94.9751 79.2942 94.9828 78.9297C94.9906 78.5651 95.0177 78.2045 95.0643 77.8477ZM96.3207 72.3681L96.0764 73.8805L94.7967 73.8689C94.3856 73.8689 93.9745 73.9154 93.5635 74.0085C93.1601 74.1015 92.784 74.2489 92.435 74.4506C92.0937 74.6445 91.8067 74.9043 91.574 75.23C91.3491 75.548 91.2095 75.9397 91.1552 76.4051C91.1087 76.7851 91.1203 77.1264 91.1901 77.4289C91.2677 77.7236 91.4189 77.9602 91.6438 78.1386C91.8765 78.3092 92.2023 78.3945 92.6211 78.3945C93.0554 78.3945 93.4743 78.2976 93.8776 78.1037C94.2809 77.9098 94.626 77.646 94.913 77.3125C95.2077 76.979 95.4016 76.599 95.4947 76.1724L95.8088 77.1497C95.7158 77.553 95.5568 77.9447 95.3318 78.3247C95.1147 78.697 94.8471 79.0305 94.5291 79.3252C94.2111 79.6122 93.8543 79.8371 93.4588 80C93.071 80.1706 92.656 80.2559 92.2139 80.2559C91.5081 80.2559 90.9148 80.097 90.4339 79.779C89.953 79.461 89.5963 79.0344 89.3636 78.4992C89.1309 77.9563 89.0378 77.3436 89.0844 76.661C89.1231 75.932 89.2976 75.296 89.6079 74.753C89.9259 74.2101 90.337 73.7642 90.8411 73.4151C91.3452 73.0584 91.9076 72.7947 92.528 72.624C93.1563 72.4456 93.8078 72.3564 94.4826 72.3564L96.3207 72.3681ZM103.345 70.2274L101.646 80H99.6336L101.821 67.412H103.717L103.345 70.2274ZM102.414 73.2755L101.681 73.2406C101.767 72.5814 101.914 71.895 102.123 71.1814C102.341 70.4601 102.639 69.7931 103.019 69.1803C103.399 68.5676 103.876 68.0751 104.45 67.7028C105.032 67.3228 105.73 67.1444 106.544 67.1677C107.173 67.1909 107.677 67.3422 108.057 67.6214C108.444 67.9006 108.728 68.2651 108.906 68.715C109.092 69.1571 109.205 69.6457 109.243 70.1809C109.282 70.7083 109.274 71.2318 109.22 71.7515L107.847 80H105.835L107.219 71.7166C107.258 71.3133 107.262 70.9061 107.231 70.495C107.207 70.0762 107.091 69.7233 106.882 69.4363C106.672 69.1416 106.312 68.9864 105.8 68.9709C105.265 68.9554 104.795 69.0873 104.392 69.3665C103.996 69.6457 103.663 70.0102 103.391 70.4601C103.12 70.9022 102.903 71.3753 102.74 71.8794C102.585 72.3758 102.476 72.8412 102.414 73.2755ZM117.373 67.412L117.082 69.064H111.358L111.66 67.412H117.373ZM114.045 64.3522H116.058L113.929 76.9053C113.906 77.107 113.898 77.3203 113.906 77.5452C113.914 77.7701 113.964 77.9602 114.057 78.1153C114.158 78.2704 114.34 78.3518 114.604 78.3596C114.743 78.3596 114.883 78.348 115.023 78.3247C115.162 78.2937 115.298 78.2665 115.43 78.2433L115.255 80.0116C115.046 80.0892 114.829 80.1435 114.604 80.1745C114.387 80.2133 114.166 80.2288 113.941 80.221C113.336 80.2133 112.882 80.0349 112.58 79.6859C112.285 79.3291 112.095 78.8948 112.009 78.3829C111.924 77.8632 111.905 77.3591 111.951 76.8704L114.045 64.3522ZM121.954 80.2327C121.139 80.2172 120.461 80.0543 119.918 79.7441C119.375 79.4338 118.952 79.015 118.65 78.4876C118.347 77.9602 118.146 77.363 118.045 76.6959C117.952 76.0289 117.944 75.3348 118.021 74.6134L118.196 73.1941C118.289 72.4495 118.464 71.7166 118.72 70.9953C118.975 70.2739 119.321 69.6224 119.755 69.0407C120.189 68.4513 120.724 67.9859 121.36 67.6447C121.996 67.3034 122.741 67.1483 123.594 67.1793C124.44 67.2026 125.11 67.3926 125.607 67.7494C126.103 68.1061 126.468 68.5715 126.7 69.1454C126.933 69.7194 127.065 70.3515 127.096 71.0418C127.135 71.7321 127.112 72.4224 127.026 73.1127L126.852 74.311H119.208L119.522 72.5542L125.083 72.5659L125.13 72.2517C125.192 71.7786 125.204 71.2939 125.165 70.7975C125.126 70.2933 124.979 69.8668 124.723 69.5177C124.467 69.161 124.048 68.9671 123.466 68.936C122.869 68.905 122.373 69.0175 121.977 69.2734C121.589 69.5294 121.275 69.8745 121.035 70.3088C120.794 70.7432 120.608 71.2163 120.476 71.7282C120.352 72.2323 120.263 72.721 120.209 73.1941L120.034 74.6251C119.988 75.0517 119.972 75.4899 119.988 75.9397C120.003 76.3818 120.077 76.7929 120.209 77.1729C120.348 77.553 120.569 77.8632 120.872 78.1037C121.182 78.3363 121.609 78.4604 122.152 78.4759C122.757 78.4915 123.299 78.3674 123.78 78.1037C124.269 77.8399 124.715 77.4909 125.118 77.0566L126.095 78.3712C125.762 78.7978 125.374 79.1507 124.932 79.4299C124.498 79.7091 124.029 79.9147 123.524 80.0465C123.02 80.1784 122.497 80.2404 121.954 80.2327Z" fill="#7A1515"/>
<path d="M61.5397 8.79634H66.7245L71.785 45.5864L89.6057 8.79634H95.2251L72.6543 54H68.401L61.5397 8.79634ZM59.708 8.79634H64.427L60.422 36.5519L57.4105 54H51.8532L59.708 8.79634ZM92.0894 8.79634H96.8395L88.9848 54H83.4275L86.5632 36.0551L92.0894 8.79634Z" fill="#7A1515"/>
<line x1="56.5195" y1="52.1933" x2="35" y2="52.1933" stroke="#7A1515" stroke-width="3.58658"/>
<line x1="35.4477" y1="50.1042" x2="34.5886" y2="54.958" stroke="white" stroke-width="1.19553"/>
<path d="M10.1097 63.4971H12.0026L13.8501 76.9284L20.356 63.4971H22.4076L14.1675 80H12.6146L10.1097 63.4971ZM9.441 63.4971H11.1638L9.70169 73.6301L8.60225 80H6.57339L9.441 63.4971ZM21.2628 63.4971H22.997L20.1294 80H18.1005L19.2453 73.4487L21.2628 63.4971Z" fill="#7A1515"/>
<line x1="8.60001" y1="79.7447" x2="0.743677" y2="79.7447" stroke="#7A1515" stroke-width="1.30939"/>
<line y1="-0.218231" x2="1.86505" y2="-0.218231" transform="matrix(-0.168153 0.985761 -0.983557 -0.180597 0.759995 79)" stroke="white" stroke-width="0.436463"/>
<line y1="-0.218231" x2="1.86505" y2="-0.218231" transform="matrix(-0.168153 0.985761 -0.983557 -0.180597 8.77 79)" stroke="white" stroke-width="0.436463"/>
</svg>
